<svg width="40" height="51" viewBox="0 0 40 51" fill="none" xmlns="http://www.w3.org/2000/svg">
<path fill-rule="evenodd" clip-rule="evenodd" d="M34.9417 0.505127C35.6445 0.50543 36.3394 0.653904 36.981 0.940862C37.6226 1.22782 38.1964 1.64682 38.6652 2.17051C39.1339 2.69421 39.487 3.31085 39.7013 3.9802C39.9157 4.64954 39.9865 5.35656 39.9092 6.05513L35.4667 46.0551C35.3313 47.2786 34.7494 48.4091 33.8323 49.2302C32.9153 50.0512 31.7276 50.5052 30.4967 50.5051H9.97171C8.7408 50.5052 7.55311 50.0512 6.63608 49.2302C5.71904 48.4091 5.13711 47.2786 5.00171 46.0551L0.55671 6.05513C0.479375 5.35635 0.550272 4.64912 0.764774 3.9796C0.979276 3.31008 1.33256 2.69332 1.80156 2.16958C2.27057 1.64585 2.84475 1.2269 3.48664 0.940097C4.12852 0.653294 4.82367 0.505079 5.52671 0.505127H34.9417ZM34.9417 5.50513H5.52671L6.58921 15.0626C7.48673 14.8916 8.39452 14.7797 9.30671 14.7276C12.3042 14.5526 16.4467 14.9126 21.2192 16.9576C25.1967 18.6626 28.5542 18.9276 30.8692 18.7901C31.7577 18.7429 32.6403 18.6174 33.5067 18.4151L34.9417 5.50513ZM32.9292 23.6051C32.3992 23.6801 31.8067 23.7451 31.1617 23.7801C28.1642 23.9576 24.0217 23.5976 19.2492 21.5551C15.2717 19.8476 11.9142 19.5826 9.59921 19.7201C8.7732 19.7657 7.95221 19.8777 7.14421 20.0551L9.97171 45.5051H30.4967L32.9292 23.6051ZM17.7342 28.0051C17.7342 28.6682 17.4708 29.3041 17.002 29.7729C16.5331 30.2417 15.8973 30.5051 15.2342 30.5051C14.5712 30.5051 13.9353 30.2417 13.4664 29.7729C12.9976 29.3041 12.7342 28.6682 12.7342 28.0051C12.7342 27.3421 12.9976 26.7062 13.4664 26.2374C13.9353 25.7685 14.5712 25.5051 15.2342 25.5051C15.8973 25.5051 16.5331 25.7685 17.002 26.2374C17.4708 26.7062 17.7342 27.3421 17.7342 28.0051ZM22.7342 38.0051C23.3973 38.0051 24.0331 37.7417 24.502 37.2729C24.9708 36.8041 25.2342 36.1682 25.2342 35.5051C25.2342 34.8421 24.9708 34.2062 24.502 33.7374C24.0331 33.2685 23.3973 33.0051 22.7342 33.0051C22.0712 33.0051 21.4353 33.2685 20.9664 33.7374C20.4976 34.2062 20.2342 34.8421 20.2342 35.5051C20.2342 36.1682 20.4976 36.8041 20.9664 37.2729C21.4353 37.7417 22.0712 38.0051 22.7342 38.0051Z" fill="#474747"/>
</svg>
